<?xml version="1.0" encoding="UTF-8"?>
<svg width="815.639098px" height="597px" viewBox="0 0 815.639098 597" version="1.1" xmlns="http://www.w3.org/2000/svg" xmlns:xlink="http://www.w3.org/1999/xlink">
    <title>splash-dark</title>
    <g id="Page-1" stroke="none" stroke-width="1" fill="none" fill-rule="evenodd">
        <g id="splash-dark" transform="translate(-792.000000, -307.000000)">
            <g transform="translate(792.000000, 307.000000)">
                <polygon id="Path" fill="#FF5858" points="504 0 599.761 165.863 600 166 599.92 166.137 600 166.276878 599.759 166.415 504 332.274 504 332.703544 440.001 332.703 408 277.275 471.753 277.276 535.919 166.138 472.159 55.703 407.349 55.702 439.35 0.276 503.522 0.276"></polygon>
                <polygon id="Path" fill="#E0144C" points="312 0 312.478 0.276 375.348 0.276 311.710744 110.499561 311.632299 110.361561 279.698744 165.904356 279.710744 165.925561 279.698744 165.947416 311.632299 221.490211 311.711744 221.351561 376 332.703 312 332.703544 312 332.275 216.239 166.414 216 166.276878 216.08 166.138 216 166 216.239 165.862"></polygon>
                <path d="M110.195489,427.135338 C134.127778,427.135338 152.06015,453.996755 152.06015,486.011942 L152.06015,543.586466 L136.661654,543.586466 L136.661654,486.011942 C136.661654,461.498183 124.001273,442.533835 110.195489,442.533835 C96.389704,442.533835 83.7293233,461.498183 83.7293233,486.011942 L83.7293233,543.586466 L68.3308271,543.586466 L68.3308271,486.011942 L68.3270405,485.278207 C68.0775049,461.120792 55.5323885,442.533835 41.8646617,442.533835 C28.058877,442.533835 15.3984962,461.498183 15.3984962,486.011942 L15.3984962,543.586466 L-1.13686838e-13,543.586466 L-1.13686838e-13,436.966976 L15.3984962,436.966976 L15.3984962,440.161985 L15.769185,439.742124 C22.6520494,432.061036 31.3859549,427.362749 41.1485049,427.143375 L41.8646617,427.135338 C56.2240351,427.135338 68.4234386,436.805448 75.8854617,451.456817 L76.0300752,451.745504 L76.1746887,451.456817 C83.5123447,437.049638 95.4307845,427.459059 109.479332,427.143375 L110.195489,427.135338 Z" id="path" fill="#FFFFFF" fill-rule="nonzero"></path>
                <path d="M665.022556,430.022556 C687.056126,430.022556 704,455.403273 704,486.011942 L704,543.586466 L694.37594,543.586466 L694.37594,486.011942 C694.37594,460.091665 680.727061,439.646617 665.022556,439.646617 C649.318052,439.646617 635.669173,460.091665 635.669173,486.011942 L635.669173,543.586466 L626.045113,543.586466 L626.045113,486.011942 L626.04103,485.235991 C625.77193,459.684809 612.239189,439.646617 596.691729,439.646617 C580.987225,439.646617 567.338346,460.091665 567.338346,486.011942 L567.338346,543.586466 L557.714286,543.586466 L557.714286,436.966976 L567.338346,436.966976 L567.338346,449.01612 L567.712255,448.410603 C574.632755,437.364426 584.628354,430.293062 596.032261,430.03015 L596.691729,430.022556 C611.674557,430.022556 624.303909,441.7586 630.852453,458.894012 L630.857143,458.905805 L630.861833,458.894012 C637.314075,442.010591 649.669593,430.368902 664.363088,430.03015 L665.022556,430.022556 Z" id="path-copy" fill="#FFFFFF" fill-rule="nonzero"></path>
                <path d="M181.894737,437.063907 L181.894611,486.762647 L181.894737,512.948488 C181.894737,520.521072 184.592461,526.947384 188.703762,530.426465 L188.864655,530.560518 C192.545863,533.580022 196.810388,533.877399 201.360247,531.012285 L209.052734,543.228109 C199.209817,549.42634 188.162758,548.656 179.709369,541.722124 C171.992684,535.392528 167.458647,524.75506 167.458647,512.948488 L167.458647,437.063907 L181.894737,437.063907 Z M181.894737,405 L181.894737,419.43609 L167.458647,419.43609 L167.458647,405 L181.894737,405 Z" id="Shape" fill="#FFFFFF" fill-rule="nonzero"></path>
                <path d="M346.252156,437.063907 L346.25203,486.762647 L346.252156,512.948488 C346.252156,520.795794 349.066427,527.496547 353.408507,531.166712 L353.574128,531.304625 C357.573482,534.585088 362.290176,534.913995 367.192905,531.826673 L373.859727,542.41372 C364.369681,548.389744 353.77479,547.650935 345.639547,540.978017 C338.157196,534.840633 333.740878,524.47935 333.740878,512.948488 L333.740878,437.063907 L346.252156,437.063907 Z M346.252156,405 L346.252156,417.511278 L333.740878,417.511278 L333.740878,405 L346.252156,405 Z" id="Shape-Copy" fill="#FFFFFF" fill-rule="nonzero"></path>
                <path d="M267.548872,428.097744 C295.74298,428.097744 318.075188,454.74145 318.075188,487.078137 L318.075188,543.586466 L304.601504,543.586466 L304.601504,487.078137 C304.601504,461.708191 287.723282,441.571429 267.548872,441.571429 C247.374463,441.571429 230.496241,461.708191 230.496241,487.078137 L230.496241,543.586466 L217.022556,543.586466 L217.022556,487.078137 L217.022556,436.966976 L230.496241,436.966976 L230.496241,446.943098 L230.637094,446.765279 C239.635616,435.522646 252.386461,428.376414 266.704824,428.105717 L267.548872,428.097744 Z" id="Path" fill="#FFFFFF" fill-rule="nonzero"></path>
                <path d="M423.423874,429.06015 C432.061631,429.06015 440.37415,431.658975 447.7101,436.509382 L441.340555,446.142936 C435.858837,442.518515 429.751193,440.609023 423.423874,440.609023 C402.702989,440.609023 385.443609,461.298776 385.443609,487.285714 C385.443609,513.272653 402.702989,533.962406 423.423874,533.962406 C429.786717,533.962406 435.927439,532.031324 441.432258,528.367661 L447.8309,537.981912 C440.466169,542.883415 432.10973,545.511278 423.423874,545.511278 C395.81465,545.511278 373.894737,519.234692 373.894737,487.285714 C373.894737,455.336737 395.81465,429.06015 423.423874,429.06015 Z" id="Path" fill="#FFFFFF" fill-rule="nonzero"></path>
                <path d="M497.082707,429.541353 C524.423024,429.541353 546.165414,455.584435 546.165414,487.285714 C546.165414,518.986994 524.423024,545.030075 497.082707,545.030075 C469.742389,545.030075 448,518.986994 448,487.285714 C448,455.584435 469.742389,429.541353 497.082707,429.541353 Z M497.082707,440.12782 C476.054507,440.12782 458.586466,461.051078 458.586466,487.285714 C458.586466,513.520351 476.054507,534.443609 497.082707,534.443609 C518.110906,534.443609 535.578947,513.520351 535.578947,487.285714 C535.578947,461.051078 518.110906,440.12782 497.082707,440.12782 Z" id="Oval" fill="#FFFFFF" fill-rule="nonzero"></path>
                <path d="M767.518797,430.503759 C783.844068,430.503759 798.158072,439.991271 806.839922,454.453051 L806.977444,454.685654 L806.977444,436.968342 L815.639098,436.968342 L815.639098,597 L806.977444,597 L806.977444,487.111595 C806.977444,460.478631 789.124574,439.165414 767.518797,439.165414 C745.913019,439.165414 728.06015,460.478631 728.06015,487.111595 C728.06015,513.744558 745.913019,535.057776 767.518797,535.057776 C774.181167,535.057776 780.607108,533.045308 786.350715,529.238438 L791.135998,536.458225 C783.999827,541.188087 775.917086,543.71943 767.518797,543.71943 C740.756057,543.71943 719.398496,518.22222 719.398496,487.111595 C719.398496,456.000969 740.756057,430.503759 767.518797,430.503759 Z" id="Path" fill="#FFFFFF" fill-rule="nonzero" transform="translate(767.518797, 513.751880) scale(-1, 1) translate(-767.518797, -513.751880) "></path>
            </g>
        </g>
    </g>
</svg>