<?xml version="1.0" encoding="UTF-8"?>
<svg width="1198px" height="689px" viewBox="0 0 1198 689" version="1.1" xmlns="http://www.w3.org/2000/svg" xmlns:xlink="http://www.w3.org/1999/xlink">
    <title>logo-light</title>
    <g id="logo-light" stroke="none" stroke-width="1" fill="none" fill-rule="evenodd">
        <rect id="Rectangle" fill="#F5F5F5" x="31" y="89" width="1139" height="480" rx="7"></rect>
        <path d="M139.999432,96 L139.996977,126.251346 L139.996977,126.251346 C157.207071,103.385631 182.193559,89 210,89 C245.20925,89 275.897187,112.064904 292.001351,146.2054 C308.102813,112.064904 338.79075,89 374,89 C425.914766,89 468,139.144108 468,201 L468,282 C468,285.865993 464.865993,289 461,289 L451,289 C447.134007,289 444,285.865993 444,282 L444,201 L444,201 C444,152.398942 412.659932,113 374,113 L372.842422,113.011789 C335.09766,113.781128 304.615069,152.106863 304.009192,199.559284 L304,201 L304,282 C304,285.865993 300.865993,289 297,289 L287,289 C283.134007,289 280,285.865993 280,282 L280,201 L280,201 C280,152.398942 248.659932,113 210,113 C171.340068,113 140,152.398942 140,201 L140,282 C140,285.865993 136.865993,289 133,289 L123,289 C119.134007,289 116,285.865993 116,282 L116,96 C116,92.1340068 119.134007,89 123,89 L133,89 C136.865993,88.999432 140,92.1334388 140,95.999432 C140,95.9996214 140,95.9998107 139.999432,96 Z" id="Path" fill="#000000"></path>
        <path d="M531.999432,376 L531.996977,406.251346 L531.996977,406.251346 C549.207071,383.385631 574.193559,369 602,369 C637.20925,369 667.897187,392.064904 684.001351,426.2054 C700.102813,392.064904 730.79075,369 766,369 C817.914766,369 860,419.144108 860,481 L860,562 C860,565.865993 856.865993,569 853,569 L843,569 C839.134007,569 836,565.865993 836,562 L836,481 L836,481 C836,432.398942 804.659932,393 766,393 L764.842422,393.011789 C727.09766,393.781128 696.615069,432.106863 696.009192,479.559284 L696,481 L696,562 C696,565.865993 692.865993,569 689,569 L679,569 C675.134007,569 672,565.865993 672,562 L672,481 L672,481 C672,432.398942 640.659932,393 602,393 C563.340068,393 532,432.398942 532,481 L532,562 C532,565.865993 528.865993,569 525,569 L515,569 C511.134007,569 508,565.865993 508,562 L508,376 C508,372.134007 511.134007,369 515,369 L525,369 C528.865993,368.999432 532,372.133439 532,375.999432 C532,375.999621 532,375.999811 531.999432,376 Z" id="Path-Copy" fill="#000000"></path>
        <path d="M507.33652,89 L516.948,89 C520.813993,89 523.948,92.1340068 523.948,96 L523.948,167.689 L523.948,167.689 L524.003483,167.68963 L523.999,225.003967 L524.003483,225.661473 C524.233084,247.447771 535.784191,265 550,265 C552.327619,265 554.583799,264.529442 556.730542,263.646788 C557.173005,263.464866 557.610818,263.265437 558.043649,263.049014 L558.250055,262.939637 C558.250055,262.939637 558.250055,262.939637 558.250055,262.939637 C560.898307,261.46884 564.237456,262.423357 565.708252,265.071609 C565.798857,265.234748 565.881077,265.402403 565.954622,265.57391 L570.462789,276.092046 C571.891518,279.428181 570.533978,283.303116 567.334792,285.016672 C567.024865,285.182967 566.814543,285.291223 566.703827,285.341439 C561.480355,287.710601 555.857816,289 550,289 C522.386807,289 500.001693,260.348391 500,225.004009 L500.336544,95.9817412 C500.346609,92.1228896 503.477655,89 507.33652,89 Z M507,29 L517,29 C520.865993,29 524,32.1340068 524,36 L524,46 C524,49.8659932 520.865993,53 517,53 L507,53 C503.134007,53 500,49.8659932 500,46 L500,36 C500,32.1340068 503.134007,29 507,29 Z" id="Shape" fill="#000000"></path>
        <path d="M831.33652,89 L840.948,89 C844.813993,89 847.948,92.1340068 847.948,96 L847.948,167.689 L847.948,167.689 L848.003483,167.68963 L847.999,225.003967 L848.003483,225.661473 C848.233084,247.447771 859.784191,265 874,265 C876.327619,265 878.583799,264.529442 880.730542,263.646788 C881.173005,263.464866 881.610818,263.265437 882.043649,263.049014 L882.250055,262.939637 C882.250055,262.939637 882.250055,262.939637 882.250055,262.939637 C884.898307,261.46884 888.237456,262.423357 889.708252,265.071609 C889.798857,265.234748 889.881077,265.402403 889.954622,265.57391 L894.462789,276.092046 C895.891518,279.428181 894.533978,283.303116 891.334792,285.016672 C891.024865,285.182967 890.814543,285.291223 890.703827,285.341439 C885.480355,287.710601 879.857816,289 874,289 C846.386807,289 824.001693,260.348391 824,225.004009 L824.336544,95.9817412 C824.346609,92.1228896 827.477655,89 831.33652,89 Z M831,29 L841,29 C844.865993,29 848,32.1340068 848,36 L848,46 C848,49.8659932 844.865993,53 841,53 L831,53 C827.134007,53 824,49.8659932 824,46 L824,36 C824,32.1340068 827.134007,29 831,29 Z" id="Shape-Copy" fill="#000000"></path>
        <path d="M611,89 L621,89 C624.865993,88.999432 628,92.1334388 628,95.999432 C628,95.9996214 628,95.9998107 627.999432,96 L627.996977,126.251346 L627.996977,126.251346 C645.207071,103.385631 670.193559,89 698,89 C749.914766,89 792,139.144108 792,201 L792,282 C792,285.865993 788.865993,289 785,289 L775,289 C771.134007,289 768,285.865993 768,282 L768,201 L768,201 C768,152.398942 736.659932,113 698,113 C659.340068,113 628,152.398942 628,201 L628,282 C628,285.865993 624.865993,289 621,289 L611,289 C607.134007,289 604,285.865993 604,282 L604,96 C604,92.1340068 607.134007,89 611,89 Z" id="Path" fill="#000000"></path>
        <path d="M84,7 L84,17 C84,20.8659932 80.8659932,24 77,24 L71.999649,24 L71.999649,24 C58.744815,24 47.999649,34.745166 47.999649,48 L47.999649,124.000351 C47.999649,138.336446 41.7147334,151.20462 31.7498915,159.999884 C41.7147334,168.79538 47.999649,181.663554 47.999649,195.999649 L47.999649,270 C47.999649,283.254834 58.744815,294 71.999649,294 L77,294 C80.8659932,294 84,297.134007 84,301 L84,311 C84,314.865993 80.8659932,318 77,318 L72,318 L72,318 C45.490332,318 24,296.509668 24,270 L24,196 C24,184.55463 15.9883086,174.980491 5.26713045,172.579787 C5.26713045,172.579787 5.26713045,172.579787 5.26713045,172.579787 C2.1884863,171.890412 -9.00278624e-06,169.15767 0,166.002787 L0,153.717544 C1.01825475e-05,150.703339 2.10562854,148.098712 5.05292488,147.467145 C5.05292488,147.467145 5.05292488,147.467145 5.05292488,147.467145 C15.8814187,145.146739 24,135.521468 24,124 L24,48 C24,21.490332 45.490332,0 72,0 L77,0 C80.8659932,-7.10171439e-16 84,3.13400675 84,7 Z" id="Path" fill="#ED6363" fill-rule="nonzero"></path>
        <path d="M210,353 C222.647743,353 234.712072,355.869921 245.72657,361.073881 L246.475927,361.432307 C246.859223,361.617891 247.832927,362.145591 249.397039,363.015407 C252.623089,364.811905 253.899162,368.80525 252.31154,372.139055 L248.055266,381.077939 C246.391916,384.567805 242.214671,386.04923 238.724509,384.386499 C238.560406,384.30832 238.399411,384.223778 238.242507,384.131992 C238.092301,384.045495 237.977709,383.981228 237.89873,383.93919 L237.422419,383.69043 C229.001,379.383436 219.732451,377 210,377 C171.726667,377 140.627533,413.85968 140.009378,459.610906 L140,460.959 L140.009378,462.307733 C140.627533,508.058959 171.726667,544.918639 210,544.918639 C219.732451,544.918639 229.001,542.535204 237.422419,538.228209 L237.89873,537.97945 C237.996871,537.927212 238.122663,537.857414 238.276105,537.770055 C241.634914,535.855813 245.908641,537.030228 247.820239,540.39054 C247.903966,540.537719 247.982325,540.687888 248.055266,540.840701 L252.309004,549.774257 C253.896533,553.110166 252.61801,557.105403 249.387184,558.897139 C247.725481,559.82145 246.755062,560.351181 246.475927,560.486333 C235.260149,565.916785 222.935192,568.918639 210,568.918639 C168.649137,568.918639 133.534477,538.241632 120.956015,495.615272 C118.250639,490.057117 116.284694,479.949677 116.028416,464.491641 L116.009921,462.997103 L116,461.672507 C116,461.449425 116,461.225232 116,461 L116.006083,462.549931 L116.001525,461.738922 L116,460.877358 C116,460.369175 116.002341,459.866301 116.006083,459.368708 L116,460.918639 C116,460.242643 116.003083,459.57601 116.009178,458.918683 L116.022218,457.906003 C116.244594,442.176879 118.222766,431.91956 120.955505,426.301912 C133.533458,383.677897 168.648537,353 210,353 Z" id="Path" fill="#000000"></path>
        <path d="M382,353 C433.914766,353 476,401.353247 476,461 C476,520.646753 433.914766,569 382,569 C330.085234,569 288,520.646753 288,461 C288,401.353247 330.085234,353 382,353 Z M382,377 C343.340068,377 312,414.608081 312,461 C312,507.391919 343.340068,545 382,545 C420.659932,545 452,507.391919 452,461 C452,414.608081 420.659932,377 382,377 Z" id="Shape" fill="#000000"></path>
        <path d="M1022.33524,376.917548 L1023.04164,377.251524 L1023.73769,377.588238 L1024.30305,377.867355 L1025.02473,378.231052 L1025.58795,378.520709 L1026.36367,378.928093 L1026.90723,379.219437 L1027.65422,379.627814 L1028.19836,379.931185 L1028.93721,380.351146 C1029.45076,380.646288 1029.96144,380.946557 1030.46932,381.251966 L1031.34431,381.784916 L1031.90225,382.131907 L1032.61665,382.584435 L1033.15143,382.929312 L1033.86467,383.397545 L1034.38253,383.743513 L1035.08727,384.222549 C1035.57505,384.557409 1036.0601,384.897297 1036.54227,385.242093 L1037.40708,385.868022 L1037.93949,386.260927 L1038.58027,386.741558 L1039.12335,387.155651 L1039.73629,387.630533 C1040.47056,388.204233 1041.19757,388.789726 1041.917,389.38668 L1043.17517,390.448976 L1043.66194,390.869961 L1044.31615,391.444742 L1044.76439,391.844605 L1045.47037,392.484559 L1045.91197,392.89128 L1046.45542,393.398729 C1047.1406,394.04337 1047.81764,394.698837 1048.48638,395.364947 L1049.67026,396.564199 L1050.08752,396.996617 L1050.76275,397.707446 L1051.17916,398.152778 L1051.72768,398.747667 C1052.35544,399.433952 1052.97497,400.130123 1053.58606,400.835951 L1054.69688,402.140713 L1055.61813,403.256849 C1056.06524,403.806276 1056.50726,404.360892 1056.94428,404.92078 L1056.94428,392 C1056.94428,388.134007 1060.07828,385 1063.94428,385 L1073.94138,385 C1077.80736,385.000044 1080.94136,388.134024 1080.94142,392 L1080.94323,682 C1080.9433,685.865993 1077.80932,689.00002 1073.94332,689.000044 C1073.94331,689.000044 1073.94329,689.000044 1073.94328,689 L1063.94428,689 C1060.07832,688.999904 1056.94433,685.865956 1056.94418,682 L1056.94138,477 L1056.94138,477 C1056.94138,470.23472 1056.2749,463.656238 1055.01643,457.353944 L1054.88666,456.715158 L1054.64357,455.573407 L1054.43284,454.634263 L1054.28606,454.004699 L1054.06952,453.108855 L1053.76548,451.909969 L1053.46151,450.771702 L1053.33645,450.319063 L1053.07818,449.41058 C1052.90898,448.826449 1052.73456,448.24525 1052.55498,447.667065 L1052.28176,446.802057 L1052.09844,446.237344 L1051.75495,445.210584 L1051.5017,444.47778 L1051.335,444.0059 L1051.12527,443.423364 L1050.94014,442.919019 L1050.67153,442.202847 L1050.52314,441.814746 C1050.35346,441.37396 1050.1807,440.935237 1050.00488,440.498618 C1049.73048,439.8172 1049.44864,439.140891 1049.15947,438.469859 L1048.73303,437.495988 L1048.46952,436.909309 L1047.99565,435.881499 L1047.72364,435.306447 L1047.48768,434.816012 L1046.97196,433.769911 L1046.49048,432.823413 L1045.92971,431.755209 L1045.68852,431.306487 L1045.37305,430.728834 L1045.13989,430.308449 L1044.78409,429.677285 L1044.55153,429.271296 L1044.22991,428.718098 L1043.97122,428.279884 L1043.61825,427.69135 C1042.94378,426.576916 1042.24705,425.483146 1041.52883,424.410982 L1040.8698,423.441976 L1040.19327,422.476888 L1039.58635,421.635413 L1039.28815,421.230049 L1038.85315,420.647968 L1038.61949,420.33973 C1038.32976,419.959421 1038.03716,419.58232 1037.74172,419.208478 L1037.12401,418.436682 L1036.49837,417.674529 L1036.30868,417.447222 L1035.80911,416.856774 L1035.50845,416.50702 L1035.10099,416.039596 L1034.76315,415.657673 L1034.07584,414.895982 C1033.77024,414.561796 1033.46216,414.230815 1033.15164,413.903082 C1032.94537,413.685377 1032.73839,413.469486 1032.53035,413.255036 L1033.15164,413.903082 L1032.7357,413.46754 L1032.31688,413.035881 L1031.50663,412.219914 L1030.95928,411.682609 L1030.65554,411.389152 L1030.18551,410.941541 L1029.85247,410.629102 L1029.06361,409.904267 L1028.65647,409.538393 L1028.44137,409.347308 C1027.82454,408.801532 1027.19998,408.267613 1026.56793,407.745831 L1026.29404,407.520875 L1025.77958,407.104444 L1025.35674,406.768087 L1024.91234,406.420227 L1024.52487,406.1216 L1024.03728,405.751897 L1023.6763,405.482505 L1023.13467,405.085091 L1022.80516,404.847256 C1022.50591,404.63261 1022.20523,404.420569 1021.90311,404.211158 L1020.89329,403.524553 L1020.35905,403.171957 L1019.82198,402.824794 L1019.27818,402.480631 L1018.89148,402.240333 L1018.31343,401.887945 L1017.42264,401.360637 L1016.58769,400.883407 L1016.41091,400.784452 C1015.93277,400.517774 1015.45169,400.257384 1014.96776,400.003372 L1014.23973,399.627148 L1013.92159,399.466431 L1013.30904,399.16323 L1012.93442,398.981826 L1012.34635,398.703155 L1011.96234,398.525172 L1011.3829,398.262515 L1010.94943,398.070642 L1010.42508,397.843771 L1010.01111,397.668671 L1009.33963,397.39212 C1008.91164,397.218781 1008.48179,397.050272 1008.05014,396.886648 L1009.01997,397.263692 L1008.43869,397.035441 L1007.85519,396.813128 C1007.4992,396.679564 1007.14198,396.54932 1006.78357,396.422427 L1006.00057,396.151195 L1005.20722,395.888495 L1004.50071,395.664726 L1003.67684,395.415773 L1003.15039,395.263398 L1002.36833,395.04662 L1002.62239,395.115794 C1002.14268,394.984051 1001.66109,394.858222 1001.17768,394.738374 L1000.61047,394.600701 L1000.10819,394.483688 L999.56497,394.362298 L999.080203,394.258474 L998.498136,394.139399 L998.091141,394.059745 L997.416563,393.934229 L997.033361,393.866529 L996.520072,393.779918 L996.005598,393.697769 L995.460738,393.615837 L995.109439,393.565768 C994.690745,393.507378 994.270924,393.453421 993.85001,393.403938 L994.914588,393.538926 C994.455725,393.476493 993.995517,393.419385 993.534008,393.367653 L992.81078,393.291098 L992.370221,393.248879 L991.721163,393.192749 L991.262581,393.157439 L990.65268,393.116038 L990.19251,393.088994 L989.54254,393.056921 L989.109536,393.039526 L988.334341,393.0163 C987.871109,393.00545 987.406776,393 986.941381,393 C948.281449,393 916.941381,430.608081 916.941381,477 C916.941381,523.391919 948.281449,561 986.941381,561 C996.673832,561 1005.94238,558.616564 1014.3638,554.30957 L1014.84011,554.06081 C1014.96583,553.993893 1015.10693,553.916717 1015.26341,553.829281 C1018.63735,551.941836 1022.90226,553.14787 1024.78892,556.522247 C1024.86319,556.655079 1024.9331,556.790298 1024.99918,556.927388 L1029.26053,565.876926 C1030.84909,569.213373 1029.56969,573.209664 1026.33913,575.00378 C1024.9319,575.784617 1023.95796,576.305921 1023.41731,576.567693 C1012.20153,581.998146 999.876573,585 986.941381,585 C945.528674,585 910.370838,554.231164 897.841111,511.505298 C894.967869,505.508768 892.941381,494.332179 892.941381,477 C892.941381,417.353247 935.026615,369 986.941381,369 C987.40549,369 987.868813,369.003864 988.331328,369.011567 L986.941381,369 C987.460146,369 987.977929,369.004828 988.494699,369.014448 L989.121826,369.028485 L990.097361,369.059725 L990.690089,369.084311 L991.589051,369.129707 L992.244546,369.168982 L992.939519,369.216325 C993.573464,369.262195 994.205533,369.315265 994.835779,369.375475 L995.895069,369.48357 L996.556767,369.558109 L997.396747,369.660533 L998.014671,369.741472 L998.958734,369.874316 L999.55964,369.964679 L1000.34354,370.089378 L1000.99918,370.199621 L1001.73629,370.330065 L1002.35379,370.444655 L1003.18698,370.606988 L1003.82442,370.737194 L1004.60914,370.904674 L1005.20743,371.03772 L1006.15203,371.257265 L1006.7329,371.398068 L1007.54196,371.601584 L1008.14704,371.759448 L1008.87058,371.95461 C1009.45335,372.114617 1010.03412,372.280891 1010.61276,372.45335 L1011.63785,372.766024 L1012.26299,372.963768 L1013.04298,373.218048 L1013.67176,373.429179 L1014.37925,373.673351 L1015.02052,373.900753 L1015.77399,374.175395 C1016.59646,374.479597 1017.41405,374.79649 1018.22652,375.125849 L1019.0523,375.465633 L1019.90437,375.826835 L1020.45513,376.066093 L1021.12873,376.364948 L1021.73329,376.639048 L1022.33524,376.917548 Z" id="Path" fill="#000000" transform="translate(986.942330, 529.000000) scale(-1, 1) translate(-986.942330, -529.000000) "></path>
        <path d="M1198,317 L1198,327 C1198,330.865993 1194.86599,334 1191,334 L1185.99965,334 L1185.99965,334 C1172.74482,334 1161.99965,344.745166 1161.99965,358 L1161.99965,434.000351 C1161.99965,448.336446 1155.71473,461.20462 1145.74989,469.999884 C1155.71473,478.79538 1161.99965,491.663554 1161.99965,505.999649 L1161.99965,580 C1161.99965,593.254834 1172.74482,604 1185.99965,604 L1191,604 C1194.86599,604 1198,607.134007 1198,611 L1198,621 C1198,624.865993 1194.86599,628 1191,628 L1186,628 L1186,628 C1159.49033,628 1138,606.509668 1138,580 L1138,506 C1138,494.55463 1129.98831,484.980491 1119.26713,482.579787 C1119.26713,482.579787 1119.26713,482.579787 1119.26713,482.579787 C1116.18849,481.890412 1113.99999,479.15767 1114,476.002787 L1114,463.717544 C1114.00001,460.703339 1116.10563,458.098712 1119.05292,457.467145 C1119.05292,457.467145 1119.05292,457.467145 1119.05292,457.467145 C1129.88142,455.146739 1138,445.521468 1138,434 L1138,358 C1138,331.490332 1159.49033,310 1186,310 L1191,310 C1194.86599,310 1198,313.134007 1198,317 Z" id="Path" fill="#ED6363" fill-rule="nonzero" transform="translate(1156.000000, 469.000000) scale(-1, 1) translate(-1156.000000, -469.000000) "></path>
    </g>
</svg>