<?xml version="1.0" encoding="UTF-8"?>
<svg width="2158px" height="334px" viewBox="0 0 2158 334" version="1.1" xmlns="http://www.w3.org/2000/svg" xmlns:xlink="http://www.w3.org/1999/xlink">
    <title>logo-dark</title>
    <g id="minicomp" stroke="none" stroke-width="1" fill="none" fill-rule="evenodd">
        <g id="logo-dark-v2" transform="translate(-106, -133)">
            <g id="logo-dark" transform="translate(106, 133.7231)">
                <polygon id="Path" fill="#FF5858" points="288 0 383.761 165.863 384 166 383.92 166.137 384 166.276878 383.759 166.415 288 332.274 288 332.703544 224.001 332.703 192 277.275 255.753 277.276 319.919 166.138 256.159 55.703 191.349 55.702 223.35 0.276 287.522 0.276"></polygon>
                <polygon id="Path" fill="#E0144C" points="96 0 96.478 0.276 159.348 0.276 95.7107441 110.499561 95.6322986 110.361561 63.6987441 165.904356 63.7107441 165.925561 63.6987441 165.947416 95.6322986 221.490211 95.7117441 221.351561 160 332.703 96 332.703544 96 332.275 0.239 166.414 0 166.276878 0.08 166.138 0 166 0.239 165.862"></polygon>
                <path d="M691.17312,97.47871 C665.255855,97.47871 644.24576,118.468567 644.24576,144.360868 L644.24576,258.636126 L609.05024,258.636126 L609.05024,144.360868 C609.05024,118.468567 588.040145,97.47871 562.12288,97.47871 C536.205615,97.47871 515.19552,118.468567 515.19552,144.360868 L515.19552,258.636126 L480,258.636126 L480,71.1074964 L509.280115,71.1074964 C512.546965,71.1074964 515.19527,73.7558014 515.19527,77.0226512 C515.19527,77.0227346 515.19527,77.022818 515.19527,77.0229013 L515.19527,77.0229013 L515.19527,77.0229013 C528.49727,67.7533198 544.674613,62.3170919 562.12288,62.3170919 C588.297011,62.3170919 611.611186,74.5502226 626.649414,93.60571 C641.684814,74.5502226 664.998989,62.3170919 691.17312,62.3170919 C736.528334,62.3170919 773.296,99.0493414 773.296,144.360868 L773.296,258.636126 L738.10048,258.636126 L738.10048,144.360868 C738.10048,118.468567 717.090385,97.47871 691.17312,97.47871 Z M1855.59445,97.47871 C1829.67719,97.47871 1808.66709,118.468567 1808.66709,144.360868 L1808.66709,258.636126 L1773.47157,258.636126 L1773.47157,144.360868 C1773.47157,118.468567 1752.46148,97.47871 1726.54421,97.47871 C1700.62695,97.47871 1679.61685,118.468567 1679.61685,144.360868 L1679.61685,258.636126 L1644.42133,258.636126 L1644.42133,71.1074964 L1673.70145,71.1074964 C1676.9683,71.1074964 1679.6166,73.7558014 1679.6166,77.0226512 C1679.6166,77.0227346 1679.6166,77.022818 1679.6166,77.0229013 L1679.6166,77.0229013 L1679.6166,77.0229013 C1692.9186,67.7533198 1709.09595,62.3170919 1726.54421,62.3170919 C1752.71834,62.3170919 1776.03252,74.5502226 1791.07075,93.60571 C1806.10615,74.5502226 1829.42032,62.3170919 1855.59445,62.3170919 C1900.94967,62.3170919 1937.71733,99.0493414 1937.71733,144.360868 L1937.71733,258.636126 L1902.52181,258.636126 L1902.52181,144.360868 C1902.52181,118.468567 1881.51172,97.47871 1855.59445,97.47871 Z M805.6992,70.6343193 L829.249733,70.6343193 C835.728033,70.6343193 840.979733,75.8860192 840.979733,82.3643193 L840.979733,202.554523 L840.979733,202.554523 C840.979733,210.55289 847.003055,217.616083 856.198928,221.849071 C858.548537,222.930629 862.004642,223.873612 866.567243,224.67802 L866.567233,224.678077 C872.173888,225.666718 876.261149,230.538525 876.260267,236.231678 L876.260267,261.185724 L876.260267,261.185724 C837.290466,261.185724 805.6992,234.935641 805.6992,202.554523 L805.6992,70.6343193 Z M805.6992,0.276877527 L829.249733,0.276877527 C835.728033,0.276877527 840.979733,5.52857741 840.979733,12.0068775 L840.979733,35.4555984 L840.979733,35.4555984 L817.4292,35.4555984 C810.9509,35.4555984 805.6992,30.2038986 805.6992,23.7255984 L805.6992,0.276877527 L805.6992,0.276877527 Z M1128.94613,70.6343193 L1152.49667,70.6343193 C1158.97497,70.6343193 1164.22667,75.8860192 1164.22667,82.3643193 L1164.22667,202.554523 L1164.22667,202.554523 C1164.22667,210.55289 1170.24999,217.616083 1179.44586,221.849071 C1181.79547,222.930629 1185.25158,223.873612 1189.81418,224.67802 L1189.81417,224.678077 C1195.42082,225.666718 1199.50808,230.538525 1199.5072,236.231678 L1199.5072,261.185724 L1199.5072,261.185724 C1160.5374,261.185724 1128.94613,234.935641 1128.94613,202.554523 L1128.94613,70.6343193 Z M1128.94613,0.276877527 L1152.49667,0.276877527 C1158.97497,0.276877527 1164.22667,5.52857741 1164.22667,12.0068775 L1164.22667,35.4555984 L1164.22667,35.4555984 L1140.67613,35.4555984 C1134.19783,35.4555984 1128.94613,30.2038986 1128.94613,23.7255984 L1128.94613,0.276877527 L1128.94613,0.276877527 Z M1002.6032,97.47871 C970.177274,97.47871 943.890867,118.468567 943.890867,144.360868 L943.890867,258.636126 L908.663467,258.636126 L908.663467,71.1074964 L935.093367,71.1086253 C939.951651,71.1086253 943.890243,75.0467123 943.890867,79.9049965 L943.892047,80.3108142 L943.892047,80.3108142 C959.974324,69.0517186 980.388248,62.3170919 1002.6032,62.3170919 C1054.48468,62.3170919 1096.54293,99.0493414 1096.54293,144.360868 L1096.54293,258.636126 L1061.31553,258.636126 L1061.31553,144.360868 C1061.31553,118.468567 1035.02913,97.47871 1002.6032,97.47871 Z M1246.75361,144.554121 C1246.75361,118.600831 1273.0542,97.5615328 1305.49763,97.5615328 C1326.97755,97.5615328 1345.18549,105.824317 1355.43004,119.589308 C1356.57685,121.130208 1357.89101,123.378512 1359.37252,126.334221 L1359.37133,126.334817 C1361.3599,130.300767 1365.41585,132.805435 1369.85241,132.807189 L1398.53653,132.807931 L1398.53653,132.807931 C1392.02222,92.9538065 1352.84906,62.3170919 1305.49763,62.3170919 C1253.58815,62.3170919 1211.5072,99.1358638 1211.5072,144.554121 L1211.5072,179.798562 L1211.51979,181.158501 C1212.3498,225.949512 1254.10724,262.03559 1305.49763,262.03559 C1352.84906,262.03559 1392.02222,231.398876 1398.53653,191.544751 L1369.88771,191.545492 C1365.46637,191.546796 1361.42137,194.034082 1359.42501,197.979055 C1358.05612,200.685765 1356.77659,202.813409 1355.58708,204.362321 C1345.2538,217.817668 1326.6857,226.791149 1305.49763,226.791149 C1273.0542,226.791149 1246.75361,205.751851 1246.75361,179.798562 L1246.75361,144.554121 Z M1576.79073,144.554121 C1576.79073,118.600831 1550.50433,97.5615328 1518.0784,97.5615328 C1485.65247,97.5615328 1459.36607,118.600831 1459.36607,144.554121 L1459.36607,179.798562 L1459.37577,180.661829 C1459.95097,206.216794 1486.01276,226.791149 1518.0784,226.791149 C1550.50433,226.791149 1576.79073,205.751851 1576.79073,179.798562 L1576.79073,144.554121 Z M1612.00555,181.158501 C1611.17599,225.949512 1569.44107,262.03559 1518.0784,262.03559 C1466.19692,262.03559 1424.13867,225.216818 1424.13867,179.798562 L1424.13867,144.554121 C1424.13867,99.1358638 1466.19692,62.3170919 1518.0784,62.3170919 C1569.95988,62.3170919 1612.01813,99.1358638 1612.01813,144.554121 L1612.01813,179.798562 L1612.00555,181.158501 Z M2122.76289,180.401221 C2122.1877,205.899911 2096.1259,226.42896 2064.06027,226.42896 C2031.63434,226.42896 2005.34793,205.435992 2005.34793,179.539855 L2005.34793,144.373026 C2005.34793,118.476888 2031.63434,97.4839207 2064.06027,97.4839207 C2096.48619,97.4839207 2122.7726,118.476888 2122.7726,144.373026 L2122.7726,179.539855 L2122.76289,180.401221 Z M2158,144.373026 C2158,99.0547849 2115.94175,62.3170919 2064.06027,62.3170919 C2041.84397,62.3170919 2021.42892,69.0535317 2005.3462,80.3155247 L2005.34793,79.9062993 C2005.34885,75.0475743 2001.41082,71.1080558 1996.55209,71.1071385 C1996.55154,71.1071384 1996.55099,71.1071383 1996.55043,71.1071383 L1970.12053,71.1087991 L1970.12053,71.1087991 L1970.12053,317.276601 L1993.61793,317.276878 C2000.09623,317.276878 2005.34793,312.025178 2005.34793,305.546878 C2005.34793,305.546785 2005.34793,305.546693 2005.34793,305.546601 L2005.3462,243.597356 L2005.3462,243.597356 C2021.42892,254.859349 2041.84397,261.595789 2064.06027,261.595789 C2115.94175,261.595789 2158,224.858096 2158,179.539855 L2158,144.373026 Z" id="Combined-Shape" fill="#FFFFFF"></path>
            </g>
        </g>
    </g>
</svg>