<?xml version="1.0" encoding="UTF-8"?>
<svg width="2331px" height="373px" viewBox="0 0 2331 373" version="1.1" xmlns="http://www.w3.org/2000/svg" xmlns:xlink="http://www.w3.org/1999/xlink">
    <title>logo-dark</title>
    <g id="minicomp" stroke="none" stroke-width="1" fill="none" fill-rule="evenodd">
        <g id="logo-dark-v2" transform="translate(-106, -106)">
            <g id="logo-dark" transform="translate(106, 106)">
                <polygon id="Path" fill="#FF5858" points="288 27.7231225 383.761 193.586122 384 193.723122 383.92 193.860122 384 194 383.759 194.138122 288 359.997122 288 360.426667 224.001 360.426122 192 304.998122 255.753 304.999122 319.919 193.861122 256.159 83.4261225 191.349 83.4251225 223.35 27.9991225 287.522 27.9991225"></polygon>
                <polygon id="Path" fill="#E0144C" points="96 27.7231225 96.478 27.9991225 159.348 27.9991225 95.7107441 138.222684 95.6322986 138.084684 63.6987441 193.627478 63.7107441 193.648684 63.6987441 193.670539 95.6322986 249.213333 95.7117441 249.074684 160 360.426122 96 360.426667 96 359.998122 0.239 194.137122 0 194 0.08 193.861122 0 193.723122 0.239 193.585122"></polygon>
                <path d="M704.4,114.373134 C673.913882,114.373134 649.2,139.070979 649.2,169.537313 L649.2,304 L607.8,304 L607.8,169.537313 C607.8,139.070979 583.086118,114.373134 552.6,114.373134 C522.113882,114.373134 497.4,139.070979 497.4,169.537313 L497.4,304 L456,304 L456,83.3432836 L490.439602,83.3432836 C494.283561,83.3432836 497.399706,86.459428 497.399706,90.3033869 C497.399706,90.303485 497.399706,90.3035831 497.399706,90.3036812 L497.399706,90.3036812 L497.399706,90.3036812 C513.046663,79.396571 532.075847,73 552.6,73 C583.388265,73 610.812405,87.3941885 628.501664,109.815945 C646.187595,87.3941885 673.611735,73 704.4,73 C757.750707,73 801,116.221227 801,169.537313 L801,304 L759.6,304 L759.6,169.537313 C759.6,139.070979 734.886118,114.373134 704.4,114.373134 Z M1989.4,114.373134 C1958.91388,114.373134 1934.2,139.070979 1934.2,169.537313 L1934.2,304 L1892.8,304 L1892.8,169.537313 C1892.8,139.070979 1868.08612,114.373134 1837.6,114.373134 C1807.11388,114.373134 1782.4,139.070979 1782.4,169.537313 L1782.4,304 L1741,304 L1741,83.3432836 L1775.4396,83.3432836 C1779.28356,83.3432836 1782.39971,86.459428 1782.39971,90.3033869 C1782.39971,90.303485 1782.39971,90.3035831 1782.39971,90.3036812 L1782.39971,90.3036812 L1782.39971,90.3036812 C1798.04666,79.396571 1817.07585,73 1837.6,73 C1868.38827,73 1895.81241,87.3941885 1913.50166,109.815945 C1931.18759,87.3941885 1958.61173,73 1989.4,73 C2042.75071,73 2086,116.221227 2086,169.537313 L2086,304 L2044.6,304 L2044.6,169.537313 C2044.6,139.070979 2019.88612,114.373134 1989.4,114.373134 Z M825,82.7865169 L852.7,82.7865169 C860.32153,82.7865169 866.5,88.9649873 866.5,96.5865169 L866.5,238.011236 L866.5,238.011236 C866.5,247.422564 873.58515,255.733513 884.402126,260.714285 C887.165939,261.986907 891.231307,263.096474 896.598231,264.042985 L896.598187,264.043233 C903.193344,265.207059 908.000915,270.938083 908,277.635141 L908,307 L908,307 C862.160366,307 825,276.112678 825,238.011236 L825,82.7865169 Z M825,0 L852.7,-1.77635684e-15 C860.32153,-3.1764091e-15 866.5,6.17847045 866.5,13.8 L866.5,41.3932584 L866.5,41.3932584 L838.8,41.3932584 C831.17847,41.3932584 825,35.214788 825,27.5932584 L825,0 L825,0 Z M1370.55963,73 C1426.25846,73 1472.3373,109.048879 1480,155.943479 L1446.26706,155.942607 C1441.04547,155.941994 1436.27141,152.994313 1433.93165,148.326283 L1433.672,147.810714 C1432.03515,144.585828 1430.57596,142.112159 1429.29443,140.389706 C1417.24391,124.193045 1395.82617,114.470588 1370.55963,114.470588 C1332.39688,114.470588 1301.45986,139.226608 1301.45986,169.764706 L1301.45986,211.235294 C1301.45986,241.773392 1332.39688,266.529412 1370.55963,266.529412 C1395.48287,266.529412 1417.32426,255.97071 1429.47915,240.138393 C1430.87836,238.315856 1432.38346,235.812351 1433.99272,232.627011 C1436.34144,227.985072 1441.10107,225.058461 1446.30339,225.057392 L1480,225.056521 C1472.3373,271.951121 1426.25846,308 1370.55963,308 C1310.10984,308 1260.99114,265.539094 1260.01481,212.835475 L1260,211.235294 L1260,169.764706 C1260,116.323035 1309.49923,73 1370.55963,73 Z M1204.7,82.7865169 C1212.32153,82.7865169 1218.5,88.9649873 1218.5,96.5865169 L1218.5,238.011236 C1218.5,247.422564 1225.58515,255.733513 1236.40213,260.714285 C1239.16594,261.986907 1243.23131,263.096474 1248.59823,264.042985 C1255.19334,265.207059 1260.00092,270.938083 1260,277.635141 L1260,307 C1214.16037,307 1177,276.112678 1177,238.011236 L1177,82.7865169 L1204.7,82.7865169 Z M1204.7,-1.77635684e-15 C1212.32153,-3.1764091e-15 1218.5,6.17847045 1218.5,13.8 L1218.5,41.3932584 L1190.8,41.3932584 C1183.17847,41.3932584 1177,35.214788 1177,27.5932584 L1177,0 L1204.7,-1.77635684e-15 Z M1042.5,114.373134 C1004.35783,114.373134 973.4375,139.070979 973.4375,169.537313 L973.4375,304 L932,304 L932,83.3432836 L963.0875,83.3446112 C968.803129,83.3446112 973.436767,87.977655 973.4375,93.6932837 L973.438889,94.172424 L973.438889,94.172424 C992.356247,80.9243399 1016.36886,73 1042.5,73 C1103.52746,73 1153,116.221227 1153,169.537313 L1153,304 L1111.5625,304 L1111.5625,169.537313 C1111.5625,139.070979 1080.64217,114.373134 1042.5,114.373134 Z M1675.5625,169.764706 C1675.5625,139.226608 1644.64217,114.470588 1606.5,114.470588 C1568.35783,114.470588 1537.4375,139.226608 1537.4375,169.764706 L1537.4375,211.235294 L1537.44892,212.251063 C1538.12551,242.32047 1568.78164,266.529412 1606.5,266.529412 C1644.64217,266.529412 1675.5625,241.773392 1675.5625,211.235294 L1675.5625,169.764706 Z M1716.9852,212.835475 C1716.00939,265.539094 1666.91719,308 1606.5,308 C1545.47254,308 1496,264.676965 1496,211.235294 L1496,169.764706 C1496,116.323035 1545.47254,73 1606.5,73 C1667.52746,73 1717,116.323035 1717,169.764706 L1717,211.235294 L1716.9852,212.835475 Z M2289.55108,211.944417 C2288.87449,241.947608 2258.21836,266.103239 2220.5,266.103239 C2182.35783,266.103239 2151.4375,241.401735 2151.4375,210.930885 L2151.4375,169.55162 C2151.4375,139.08077 2182.35783,114.379266 2220.5,114.379266 C2258.64217,114.379266 2289.5625,139.08077 2289.5625,169.55162 L2289.5625,210.930885 L2289.55108,211.944417 Z M2331,169.55162 C2331,116.227633 2281.52746,73 2220.5,73 C2194.36728,73 2170.35334,80.9264733 2151.43546,94.1779667 L2151.4375,93.6948166 C2151.43858,87.9786695 2146.8056,83.3439422 2141.08945,83.3428633 C2141.0888,83.3428632 2141.08815,83.3428631 2141.0875,83.3428631 L2110,83.3448164 L2110,83.3448164 L2110,372.999675 L2137.6375,373.000001 C2145.25903,373.000001 2151.4375,366.82153 2151.4375,359.200001 C2151.4375,359.199892 2151.4375,359.199784 2151.4375,359.199675 L2151.43546,286.304538 L2151.43546,286.304538 C2170.35334,299.556031 2194.36728,307.482505 2220.5,307.482505 C2281.52746,307.482505 2331,264.254872 2331,210.930885 L2331,169.55162 Z" id="Combined-Shape" fill="#FFFFFF"></path>
            </g>
        </g>
    </g>
</svg>