<?xml version="1.0" encoding="UTF-8"?>
<svg width="2582px" height="393px" viewBox="0 0 2582 393" version="1.1" xmlns="http://www.w3.org/2000/svg" xmlns:xlink="http://www.w3.org/1999/xlink">
    <title>logo-dark</title>
    <g id="logo-dark" stroke="none" stroke-width="1" fill="none" fill-rule="evenodd">
        <g id="Group">
            <rect id="Rectangle" fill="#003545" opacity="0.4" x="0" y="89" width="2552" height="200" rx="7"></rect>
            <path d="M23.999432,96 L23.9969774,126.251346 L23.9969774,126.251346 C41.2070707,103.385631 66.1935588,89 94,89 C129.20925,89 159.897187,112.064904 176.001351,146.2054 C192.102813,112.064904 222.79075,89 258,89 C309.914766,89 352,139.144108 352,201 L352,282 C352,285.865993 348.865993,289 345,289 L335,289 C331.134007,289 328,285.865993 328,282 L328,201 L328,201 C328,152.398942 296.659932,113 258,113 L256.842422,113.011789 C219.09766,113.781128 188.615069,152.106863 188.009192,199.559284 L188,201 L188,282 C188,285.865993 184.865993,289 181,289 L171,289 C167.134007,289 164,285.865993 164,282 L164,201 L164,201 C164,152.398942 132.659932,113 94,113 C55.3400675,113 24,152.398942 24,201 L24,282 C24,285.865993 20.8659932,289 17,289 L7,289 C3.13400675,289 4.73447626e-16,285.865993 0,282 L0,96 C-4.73447626e-16,92.1340068 3.13400675,89 7,89 L17,89 C20.8659932,88.999432 24,92.1334388 24,95.999432 C24,95.9996214 24,95.9998107 23.999432,96 Z" id="Path" fill="#FFFFFF"></path>
            <path d="M1788.99943,96 L1788.99698,126.251346 L1788.99698,126.251346 C1806.20707,103.385631 1831.19356,89 1859,89 C1894.20925,89 1924.89719,112.064904 1941.00135,146.2054 C1957.10281,112.064904 1987.79075,89 2023,89 C2074.91477,89 2117,139.144108 2117,201 L2117,282 C2117,285.865993 2113.86599,289 2110,289 L2100,289 C2096.13401,289 2093,285.865993 2093,282 L2093,201 L2093,201 C2093,152.398942 2061.65993,113 2023,113 L2021.84242,113.011789 C1984.09766,113.781128 1953.61507,152.106863 1953.00919,199.559284 L1953,201 L1953,282 C1953,285.865993 1949.86599,289 1946,289 L1936,289 C1932.13401,289 1929,285.865993 1929,282 L1929,201 L1929,201 C1929,152.398942 1897.65993,113 1859,113 C1820.34007,113 1789,152.398942 1789,201 L1789,282 C1789,285.865993 1785.86599,289 1782,289 L1772,289 C1768.13401,289 1765,285.865993 1765,282 L1765,96 C1765,92.1340068 1768.13401,89 1772,89 L1782,89 C1785.86599,88.999432 1789,92.1334388 1789,95.999432 C1789,95.9996214 1789,95.9998107 1788.99943,96 Z" id="Path-Copy" fill="#FFFFFF"></path>
            <path d="M455.33652,89 L464.948,89 C468.813993,89 471.948,92.1340068 471.948,96 L471.948,167.689 L471.948,167.689 L472.003483,167.68963 L471.999,225.003967 L472.003483,225.661473 C472.233084,247.447771 483.784191,265 498,265 C500.327619,265 502.583799,264.529442 504.730542,263.646788 C505.173005,263.464866 505.610818,263.265437 506.043649,263.049014 L506.250055,262.939637 C506.250055,262.939637 506.250055,262.939637 506.250055,262.939637 C508.898307,261.46884 512.237456,262.423357 513.708252,265.071609 C513.798857,265.234748 513.881077,265.402403 513.954622,265.57391 L518.462789,276.092046 C519.891518,279.428181 518.533978,283.303116 515.334792,285.016672 C515.024865,285.182967 514.814543,285.291223 514.703827,285.341439 C509.480355,287.710601 503.857816,289 498,289 C470.386807,289 448.001693,260.348391 448,225.004009 L448.336544,95.9817412 C448.346609,92.1228896 451.477655,89 455.33652,89 Z M455,29 L465,29 C468.865993,29 472,32.1340068 472,36 L472,46 C472,49.8659932 468.865993,53 465,53 L455,53 C451.134007,53 448,49.8659932 448,46 L448,36 C448,32.1340068 451.134007,29 455,29 Z" id="Shape" fill="#FFFFFF"></path>
            <path d="M906.33652,89 L915.948,89 C919.813993,89 922.948,92.1340068 922.948,96 L922.948,167.689 L922.948,167.689 L923.003483,167.68963 L922.999,225.003967 L923.003483,225.661473 C923.233084,247.447771 934.784191,265 949,265 C951.327619,265 953.583799,264.529442 955.730542,263.646788 C956.173005,263.464866 956.610818,263.265437 957.043649,263.049014 L957.250055,262.939637 C957.250055,262.939637 957.250055,262.939637 957.250055,262.939637 C959.898307,261.46884 963.237456,262.423357 964.708252,265.071609 C964.798857,265.234748 964.881077,265.402403 964.954622,265.57391 L969.462789,276.092046 C970.891518,279.428181 969.533978,283.303116 966.334792,285.016672 C966.024865,285.182967 965.814543,285.291223 965.703827,285.341439 C960.480355,287.710601 954.857816,289 949,289 C921.386807,289 899.001693,260.348391 899,225.004009 L899.336544,95.9817412 C899.346609,92.1228896 902.477655,89 906.33652,89 Z M906,29 L916,29 C919.865993,29 923,32.1340068 923,36 L923,46 C923,49.8659932 919.865993,53 916,53 L906,53 C902.134007,53 899,49.8659932 899,46 L899,36 C899,32.1340068 902.134007,29 906,29 Z" id="Shape-Copy" fill="#FFFFFF"></path>
            <path d="M622,89 L632,89 C635.865993,88.999432 639,92.1334388 639,95.999432 C639,95.9996214 639,95.9998107 638.999432,96 L638.996977,126.251346 L638.996977,126.251346 C656.207071,103.385631 681.193559,89 709,89 C760.914766,89 803,139.144108 803,201 L803,282 C803,285.865993 799.865993,289 796,289 L786,289 C782.134007,289 779,285.865993 779,282 L779,201 L779,201 C779,152.398942 747.659932,113 709,113 C670.340068,113 639,152.398942 639,201 L639,282 C639,285.865993 635.865993,289 632,289 L622,289 C618.134007,289 615,285.865993 615,282 L615,96 C615,92.1340068 618.134007,89 622,89 Z" id="Path" fill="#FFFFFF"></path>
            <path d="M1150,7 L1150,17 C1150,20.8659932 1146.86599,24 1143,24 L1137.99965,24 L1137.99965,24 C1124.74482,24 1113.99965,34.745166 1113.99965,48 L1113.99965,124.000351 C1113.99965,138.336446 1107.71473,151.20462 1097.74989,159.999884 C1107.71473,168.79538 1113.99965,181.663554 1113.99965,195.999649 L1113.99965,270 C1113.99965,283.254834 1124.74482,294 1137.99965,294 L1143,294 C1146.86599,294 1150,297.134007 1150,301 L1150,311 C1150,314.865993 1146.86599,318 1143,318 L1138,318 L1138,318 C1111.49033,318 1090,296.509668 1090,270 L1090,196 C1090,184.55463 1081.98831,174.980491 1071.26713,172.579787 C1071.26713,172.579787 1071.26713,172.579787 1071.26713,172.579787 C1068.18849,171.890412 1065.99999,169.15767 1066,166.002787 L1066,153.717544 C1066.00001,150.703339 1068.10563,148.098712 1071.05292,147.467145 C1071.05292,147.467145 1071.05292,147.467145 1071.05292,147.467145 C1081.88142,145.146739 1090,135.521468 1090,124 L1090,48 C1090,21.490332 1111.49033,0 1138,0 L1143,0 C1146.86599,-7.10171439e-16 1150,3.13400675 1150,7 Z" id="Path" fill="#ED6363" fill-rule="nonzero"></path>
            <path d="M1340,73 C1352.64774,73 1364.71207,75.8699207 1375.72657,81.0738806 L1376.47593,81.4323066 C1376.85922,81.617891 1377.83293,82.1455912 1379.39704,83.0154074 C1382.62309,84.8119054 1383.89916,88.8052502 1382.31154,92.1390554 L1378.05527,101.077939 C1376.39192,104.567805 1372.21467,106.04923 1368.72451,104.386499 C1368.56041,104.30832 1368.39941,104.223778 1368.24251,104.131992 C1368.0923,104.045495 1367.97771,103.981228 1367.89873,103.93919 L1367.42242,103.69043 C1359.001,99.3834356 1349.73245,97 1340,97 C1301.72667,97 1270.62753,133.85968 1270.00938,179.610906 L1270,180.959 L1270.00938,182.307733 C1270.62753,228.058959 1301.72667,264.918639 1340,264.918639 C1349.73245,264.918639 1359.001,262.535204 1367.42242,258.228209 L1367.89873,257.97945 C1367.99687,257.927212 1368.12266,257.857414 1368.27611,257.770055 C1371.63491,255.855813 1375.90864,257.030228 1377.82024,260.39054 C1377.90397,260.537719 1377.98232,260.687888 1378.05527,260.840701 L1382.309,269.774257 C1383.89653,273.110166 1382.61801,277.105403 1379.38718,278.897139 C1377.72548,279.82145 1376.75506,280.351181 1376.47593,280.486333 C1365.26015,285.916785 1352.93519,288.918639 1340,288.918639 C1298.64914,288.918639 1263.53448,258.241632 1250.95602,215.615272 C1248.25064,210.057117 1246.28469,199.949677 1246.02842,184.491641 L1246.00992,182.997103 L1246,181.672507 C1246,181.449425 1246,181.225232 1246,181 L1246.00608,182.549931 L1246.00153,181.738922 L1246,180.877358 C1246,180.369175 1246.00234,179.866301 1246.00608,179.368708 L1246,180.918639 C1246,180.242643 1246.00308,179.57601 1246.00918,178.918683 L1246.02222,177.906003 C1246.24459,162.176879 1248.22277,151.91956 1250.9555,146.301912 C1263.53346,103.677897 1298.64854,73 1340,73 Z" id="Path" fill="#FFFFFF"></path>
            <path d="M1575,73 C1626.91477,73 1669,121.353247 1669,181 C1669,240.646753 1626.91477,289 1575,289 C1523.08523,289 1481,240.646753 1481,181 C1481,121.353247 1523.08523,73 1575,73 Z M1575,97 C1536.34007,97 1505,134.608081 1505,181 C1505,227.391919 1536.34007,265 1575,265 C1613.65993,265 1645,227.391919 1645,181 C1645,134.608081 1613.65993,97 1575,97 Z" id="Shape" fill="#FFFFFF"></path>
            <path d="M2343.33524,80.9175477 L2344.04164,81.251524 L2344.73769,81.5882382 L2345.30305,81.8673546 L2346.02473,82.2310515 L2346.58795,82.5207091 L2347.36367,82.9280929 L2347.90723,83.2194369 L2348.65422,83.6278138 L2349.19836,83.9311847 L2349.93721,84.3511455 C2350.45076,84.646288 2350.96144,84.946557 2351.46932,85.251966 L2352.34431,85.7849165 L2352.90225,86.1319069 L2353.61665,86.5844355 L2354.15143,86.9293117 L2354.86467,87.3975452 L2355.38253,87.7435135 L2356.08727,88.222549 C2356.57505,88.5574093 2357.0601,88.8972973 2357.54227,89.242093 L2358.40708,89.8680218 L2358.93949,90.2609269 L2359.58027,90.741558 L2360.12335,91.1556506 L2360.73629,91.6305332 C2361.47056,92.2042327 2362.19757,92.7897258 2362.917,93.3866803 L2364.17517,94.448976 L2364.66194,94.8699607 L2365.31615,95.4447424 L2365.76439,95.8446048 L2366.47037,96.4845586 L2366.91197,96.8912803 L2367.45542,97.3987292 C2368.1406,98.0433701 2368.81764,98.6988373 2369.48638,99.3649472 L2370.67026,100.564199 L2371.08752,100.996617 L2371.76275,101.707446 L2372.17916,102.152778 L2372.72768,102.747667 C2373.35544,103.433952 2373.97497,104.130123 2374.58606,104.835951 L2375.69688,106.140713 L2376.61813,107.256849 C2377.06524,107.806276 2377.50726,108.360892 2377.94428,108.92078 L2377.94428,96 C2377.94428,92.1340068 2381.07828,89 2384.94428,89 L2394.94138,89 C2398.80736,89.0000437 2401.94136,92.1340238 2401.94142,96 L2401.94323,386 C2401.9433,389.865993 2398.80932,393.00002 2394.94332,393.000044 C2394.94331,393.000044 2394.94329,393.000044 2394.94328,393 L2384.94428,393 C2381.07832,392.999904 2377.94433,389.865956 2377.94418,386 L2377.94138,181 L2377.94138,181 C2377.94138,174.23472 2377.2749,167.656238 2376.01643,161.353944 L2375.88666,160.715158 L2375.64357,159.573407 L2375.43284,158.634263 L2375.28606,158.004699 L2375.06952,157.108855 L2374.76548,155.909969 L2374.46151,154.771702 L2374.33645,154.319063 L2374.07818,153.41058 C2373.90898,152.826449 2373.73456,152.24525 2373.55498,151.667065 L2373.28176,150.802057 L2373.09844,150.237344 L2372.75495,149.210584 L2372.5017,148.47778 L2372.335,148.0059 L2372.12527,147.423364 L2371.94014,146.919019 L2371.67153,146.202847 L2371.52314,145.814746 C2371.35346,145.37396 2371.1807,144.935237 2371.00488,144.498618 C2370.73048,143.8172 2370.44864,143.140891 2370.15947,142.469859 L2369.73303,141.495988 L2369.46952,140.909309 L2368.99565,139.881499 L2368.72364,139.306447 L2368.48768,138.816012 L2367.97196,137.769911 L2367.49048,136.823413 L2366.92971,135.755209 L2366.68852,135.306487 L2366.37305,134.728834 L2366.13989,134.308449 L2365.78409,133.677285 L2365.55153,133.271296 L2365.22991,132.718098 L2364.97122,132.279884 L2364.61825,131.69135 C2363.94378,130.576916 2363.24705,129.483146 2362.52883,128.410982 L2361.8698,127.441976 L2361.19327,126.476888 L2360.58635,125.635413 L2360.28815,125.230049 L2359.85315,124.647968 L2359.61949,124.33973 C2359.32976,123.959421 2359.03716,123.58232 2358.74172,123.208478 L2358.12401,122.436682 L2357.49837,121.674529 L2357.30868,121.447222 L2356.80911,120.856774 L2356.50845,120.50702 L2356.10099,120.039596 L2355.76315,119.657673 L2355.07584,118.895982 C2354.77024,118.561796 2354.46216,118.230815 2354.15164,117.903082 C2353.94537,117.685377 2353.73839,117.469486 2353.53035,117.255036 L2354.15164,117.903082 L2353.7357,117.46754 L2353.31688,117.035881 L2352.50663,116.219914 L2351.95928,115.682609 L2351.65554,115.389152 L2351.18551,114.941541 L2350.85247,114.629102 L2350.06361,113.904267 L2349.65647,113.538393 L2349.44137,113.347308 C2348.82454,112.801532 2348.19998,112.267613 2347.56793,111.745831 L2347.29404,111.520875 L2346.77958,111.104444 L2346.35674,110.768087 L2345.91234,110.420227 L2345.52487,110.1216 L2345.03728,109.751897 L2344.6763,109.482505 L2344.13467,109.085091 L2343.80516,108.847256 C2343.50591,108.63261 2343.20523,108.420569 2342.90311,108.211158 L2341.89329,107.524553 L2341.35905,107.171957 L2340.82198,106.824794 L2340.27818,106.480631 L2339.89148,106.240333 L2339.31343,105.887945 L2338.42264,105.360637 L2337.58769,104.883407 L2337.41091,104.784452 C2336.93277,104.517774 2336.45169,104.257384 2335.96776,104.003372 L2335.23973,103.627148 L2334.92159,103.466431 L2334.30904,103.16323 L2333.93442,102.981826 L2333.34635,102.703155 L2332.96234,102.525172 L2332.3829,102.262515 L2331.94943,102.070642 L2331.42508,101.843771 L2331.01111,101.668671 L2330.33963,101.39212 C2329.91164,101.218781 2329.48179,101.050272 2329.05014,100.886648 L2330.01997,101.263692 L2329.43869,101.035441 L2328.85519,100.813128 C2328.4992,100.679564 2328.14198,100.54932 2327.78357,100.422427 L2327.00057,100.151195 L2326.20722,99.8884951 L2325.50071,99.6647262 L2324.67684,99.4157726 L2324.15039,99.2633983 L2323.36833,99.0466205 L2323.62239,99.1157942 C2323.14268,98.9840507 2322.66109,98.8582216 2322.17768,98.7383741 L2321.61047,98.6007006 L2321.10819,98.4836879 L2320.56497,98.3622977 L2320.0802,98.2584741 L2319.49814,98.1393987 L2319.09114,98.0597449 L2318.41656,97.9342291 L2318.03336,97.8665291 L2317.52007,97.7799181 L2317.0056,97.6977691 L2316.46074,97.6158374 L2316.10944,97.5657678 C2315.69074,97.5073776 2315.27092,97.4534209 2314.85001,97.4039381 L2315.91459,97.5389256 C2315.45573,97.4764934 2314.99552,97.4193849 2314.53401,97.3676529 L2313.81078,97.291098 L2313.37022,97.2488792 L2312.72116,97.1927493 L2312.26258,97.1574389 L2311.65268,97.1160384 L2311.19251,97.0889937 L2310.54254,97.0569206 L2310.10954,97.0395263 L2309.33434,97.0162999 C2308.87111,97.0054501 2308.40678,97 2307.94138,97 C2269.28145,97 2237.94138,134.608081 2237.94138,181 C2237.94138,227.391919 2269.28145,265 2307.94138,265 C2317.67383,265 2326.94238,262.616564 2335.3638,258.30957 L2335.84011,258.06081 C2335.96583,257.993893 2336.10693,257.916717 2336.26341,257.829281 C2339.63735,255.941836 2343.90226,257.14787 2345.78892,260.522247 C2345.86319,260.655079 2345.9331,260.790298 2345.99918,260.927388 L2350.26053,269.876926 C2351.84909,273.213373 2350.56969,277.209664 2347.33913,279.00378 C2345.9319,279.784617 2344.95796,280.305921 2344.41731,280.567693 C2333.20153,285.998146 2320.87657,289 2307.94138,289 C2266.52867,289 2231.37084,258.231164 2218.84111,215.505298 C2215.96787,209.508768 2213.94138,198.332179 2213.94138,181 C2213.94138,121.353247 2256.02661,73 2307.94138,73 C2308.40549,73 2308.86881,73.0038644 2309.33133,73.0115668 L2307.94138,73 C2308.46015,73 2308.97793,73.0048282 2309.4947,73.0144476 L2310.12183,73.0284845 L2311.09736,73.0597248 L2311.69009,73.0843114 L2312.58905,73.129707 L2313.24455,73.1689824 L2313.93952,73.2163252 C2314.57346,73.2621947 2315.20553,73.3152654 2315.83578,73.3754752 L2316.89507,73.4835699 L2317.55677,73.5581086 L2318.39675,73.6605332 L2319.01467,73.7414719 L2319.95873,73.8743163 L2320.55964,73.9646787 L2321.34354,74.089378 L2321.99918,74.1996213 L2322.73629,74.3300648 L2323.35379,74.4446551 L2324.18698,74.6069878 L2324.82442,74.7371938 L2325.60914,74.9046737 L2326.20743,75.0377201 L2327.15203,75.2572651 L2327.7329,75.3980682 L2328.54196,75.6015837 L2329.14704,75.7594477 L2329.87058,75.95461 C2330.45335,76.1146167 2331.03412,76.2808914 2331.61276,76.4533499 L2332.63785,76.7660237 L2333.26299,76.9637675 L2334.04298,77.2180485 L2334.67176,77.4291793 L2335.37925,77.6733512 L2336.02052,77.9007533 L2336.77399,78.175395 C2337.59646,78.4795971 2338.41405,78.7964898 2339.22652,79.1258493 L2340.0523,79.4656334 L2340.90437,79.8268353 L2341.45513,80.0660932 L2342.12873,80.3649476 L2342.73329,80.6390484 L2343.33524,80.9175477 Z" id="Path" fill="#FFFFFF" transform="translate(2307.942330, 233.000000) scale(-1, 1) translate(-2307.942330, -233.000000) "></path>
            <path d="M2582,7 L2582,17 C2582,20.8659932 2578.86599,24 2575,24 L2569.99965,24 L2569.99965,24 C2556.74482,24 2545.99965,34.745166 2545.99965,48 L2545.99965,124.000351 C2545.99965,138.336446 2539.71473,151.20462 2529.74989,159.999884 C2539.71473,168.79538 2545.99965,181.663554 2545.99965,195.999649 L2545.99965,270 C2545.99965,283.254834 2556.74482,294 2569.99965,294 L2575,294 C2578.86599,294 2582,297.134007 2582,301 L2582,311 C2582,314.865993 2578.86599,318 2575,318 L2570,318 L2570,318 C2543.49033,318 2522,296.509668 2522,270 L2522,196 C2522,184.55463 2513.98831,174.980491 2503.26713,172.579787 C2503.26713,172.579787 2503.26713,172.579787 2503.26713,172.579787 C2500.18849,171.890412 2497.99999,169.15767 2498,166.002787 L2498,153.717544 C2498.00001,150.703339 2500.10563,148.098712 2503.05292,147.467145 C2503.05292,147.467145 2503.05292,147.467145 2503.05292,147.467145 C2513.88142,145.146739 2522,135.521468 2522,124 L2522,48 C2522,21.490332 2543.49033,0 2570,0 L2575,0 C2578.86599,-7.10171439e-16 2582,3.13400675 2582,7 Z" id="Path" fill="#ED6363" fill-rule="nonzero" transform="translate(2540.000000, 159.000000) scale(-1, 1) translate(-2540.000000, -159.000000) "></path>
        </g>
    </g>
</svg>