<?xml version="1.0" encoding="UTF-8"?>
<svg width="1222px" height="689px" viewBox="0 0 1222 689" version="1.1" xmlns="http://www.w3.org/2000/svg" xmlns:xlink="http://www.w3.org/1999/xlink">
    <title>logo-dark</title>
    <g id="logo-dark" stroke="none" stroke-width="1" fill="none" fill-rule="evenodd">
        <rect id="Rectangle" fill="#111111" x="25" y="89" width="1173" height="480" rx="48"></rect>
        <path d="M163.999432,96 L163.996977,126.251346 L163.996977,126.251346 C181.207071,103.385631 206.193559,89 234,89 C269.20925,89 299.897187,112.064904 316.001351,146.2054 C332.102813,112.064904 362.79075,89 398,89 C449.914766,89 492,139.144108 492,201 L492,282 C492,285.865993 488.865993,289 485,289 L475,289 C471.134007,289 468,285.865993 468,282 L468,201 L468,201 C468,152.398942 436.659932,113 398,113 L396.842422,113.011789 C359.09766,113.781128 328.615069,152.106863 328.009192,199.559284 L328,201 L328,282 C328,285.865993 324.865993,289 321,289 L311,289 C307.134007,289 304,285.865993 304,282 L304,201 L304,201 C304,152.398942 272.659932,113 234,113 C195.340068,113 164,152.398942 164,201 L164,282 C164,285.865993 160.865993,289 157,289 L147,289 C143.134007,289 140,285.865993 140,282 L140,96 C140,92.1340068 143.134007,89 147,89 L157,89 C160.865993,88.999432 164,92.1334388 164,95.999432 C164,95.9996214 164,95.9998107 163.999432,96 Z" id="Path" fill="#FFFFFF"></path>
        <path d="M555.999432,376 L555.996977,406.251346 L555.996977,406.251346 C573.207071,383.385631 598.193559,369 626,369 C661.20925,369 691.897187,392.064904 708.001351,426.2054 C724.102813,392.064904 754.79075,369 790,369 C841.914766,369 884,419.144108 884,481 L884,562 C884,565.865993 880.865993,569 877,569 L867,569 C863.134007,569 860,565.865993 860,562 L860,481 L860,481 C860,432.398942 828.659932,393 790,393 L788.842422,393.011789 C751.09766,393.781128 720.615069,432.106863 720.009192,479.559284 L720,481 L720,562 C720,565.865993 716.865993,569 713,569 L703,569 C699.134007,569 696,565.865993 696,562 L696,481 L696,481 C696,432.398942 664.659932,393 626,393 C587.340068,393 556,432.398942 556,481 L556,562 C556,565.865993 552.865993,569 549,569 L539,569 C535.134007,569 532,565.865993 532,562 L532,376 C532,372.134007 535.134007,369 539,369 L549,369 C552.865993,368.999432 556,372.133439 556,375.999432 C556,375.999621 556,375.999811 555.999432,376 Z" id="Path-Copy" fill="#FFFFFF"></path>
        <path d="M531.33652,89 L540.948,89 C544.813993,89 547.948,92.1340068 547.948,96 L547.948,167.689 L547.948,167.689 L548.003483,167.68963 L547.999,225.003967 L548.003483,225.661473 C548.233084,247.447771 559.784191,265 574,265 C576.327619,265 578.583799,264.529442 580.730542,263.646788 C581.173005,263.464866 581.610818,263.265437 582.043649,263.049014 L582.250055,262.939637 C582.250055,262.939637 582.250055,262.939637 582.250055,262.939637 C584.898307,261.46884 588.237456,262.423357 589.708252,265.071609 C589.798857,265.234748 589.881077,265.402403 589.954622,265.57391 L594.462789,276.092046 C595.891518,279.428181 594.533978,283.303116 591.334792,285.016672 C591.024865,285.182967 590.814543,285.291223 590.703827,285.341439 C585.480355,287.710601 579.857816,289 574,289 C546.386807,289 524.001693,260.348391 524,225.004009 L524.336544,95.9817412 C524.346609,92.1228896 527.477655,89 531.33652,89 Z M531,29 L541,29 C544.865993,29 548,32.1340068 548,36 L548,46 C548,49.8659932 544.865993,53 541,53 L531,53 C527.134007,53 524,49.8659932 524,46 L524,36 C524,32.1340068 527.134007,29 531,29 Z" id="Shape" fill="#FFFFFF"></path>
        <path d="M855.33652,89 L864.948,89 C868.813993,89 871.948,92.1340068 871.948,96 L871.948,167.689 L871.948,167.689 L872.003483,167.68963 L871.999,225.003967 L872.003483,225.661473 C872.233084,247.447771 883.784191,265 898,265 C900.327619,265 902.583799,264.529442 904.730542,263.646788 C905.173005,263.464866 905.610818,263.265437 906.043649,263.049014 L906.250055,262.939637 C906.250055,262.939637 906.250055,262.939637 906.250055,262.939637 C908.898307,261.46884 912.237456,262.423357 913.708252,265.071609 C913.798857,265.234748 913.881077,265.402403 913.954622,265.57391 L918.462789,276.092046 C919.891518,279.428181 918.533978,283.303116 915.334792,285.016672 C915.024865,285.182967 914.814543,285.291223 914.703827,285.341439 C909.480355,287.710601 903.857816,289 898,289 C870.386807,289 848.001693,260.348391 848,225.004009 L848.336544,95.9817412 C848.346609,92.1228896 851.477655,89 855.33652,89 Z M855,29 L865,29 C868.865993,29 872,32.1340068 872,36 L872,46 C872,49.8659932 868.865993,53 865,53 L855,53 C851.134007,53 848,49.8659932 848,46 L848,36 C848,32.1340068 851.134007,29 855,29 Z" id="Shape-Copy" fill="#FFFFFF"></path>
        <path d="M635,89 L645,89 C648.865993,88.999432 652,92.1334388 652,95.999432 C652,95.9996214 652,95.9998107 651.999432,96 L651.996977,126.251346 L651.996977,126.251346 C669.207071,103.385631 694.193559,89 722,89 C773.914766,89 816,139.144108 816,201 L816,282 C816,285.865993 812.865993,289 809,289 L799,289 C795.134007,289 792,285.865993 792,282 L792,201 L792,201 C792,152.398942 760.659932,113 722,113 C683.340068,113 652,152.398942 652,201 L652,282 C652,285.865993 648.865993,289 645,289 L635,289 C631.134007,289 628,285.865993 628,282 L628,96 C628,92.1340068 631.134007,89 635,89 Z" id="Path" fill="#FFFFFF"></path>
        <path d="M84,7 L84,17 C84,20.8659932 80.8659932,24 77,24 L71.999649,24 L71.999649,24 C58.744815,24 47.999649,34.745166 47.999649,48 L47.999649,124.000351 C47.999649,138.336446 41.7147334,151.20462 31.7498915,159.999884 C41.7147334,168.79538 47.999649,181.663554 47.999649,195.999649 L47.999649,270 C47.999649,283.254834 58.744815,294 71.999649,294 L77,294 C80.8659932,294 84,297.134007 84,301 L84,311 C84,314.865993 80.8659932,318 77,318 L72,318 L72,318 C45.490332,318 24,296.509668 24,270 L24,196 C24,184.55463 15.9883086,174.980491 5.26713045,172.579787 C5.26713045,172.579787 5.26713045,172.579787 5.26713045,172.579787 C2.1884863,171.890412 -9.00278624e-06,169.15767 0,166.002787 L0,153.717544 C1.01825475e-05,150.703339 2.10562854,148.098712 5.05292488,147.467145 C5.05292488,147.467145 5.05292488,147.467145 5.05292488,147.467145 C15.8814187,145.146739 24,135.521468 24,124 L24,48 C24,21.490332 45.490332,0 72,0 L77,0 C80.8659932,-7.10171439e-16 84,3.13400675 84,7 Z" id="Path" fill="#ED6363" fill-rule="nonzero"></path>
        <path d="M234,353 C246.647743,353 258.712072,355.869921 269.72657,361.073881 L270.475927,361.432307 C270.859223,361.617891 271.832927,362.145591 273.397039,363.015407 C276.623089,364.811905 277.899162,368.80525 276.31154,372.139055 L272.055266,381.077939 C270.391916,384.567805 266.214671,386.04923 262.724509,384.386499 C262.560406,384.30832 262.399411,384.223778 262.242507,384.131992 C262.092301,384.045495 261.977709,383.981228 261.89873,383.93919 L261.422419,383.69043 C253.001,379.383436 243.732451,377 234,377 C195.726667,377 164.627533,413.85968 164.009378,459.610906 L164,460.959 L164.009378,462.307733 C164.627533,508.058959 195.726667,544.918639 234,544.918639 C243.732451,544.918639 253.001,542.535204 261.422419,538.228209 L261.89873,537.97945 C261.996871,537.927212 262.122663,537.857414 262.276105,537.770055 C265.634914,535.855813 269.908641,537.030228 271.820239,540.39054 C271.903966,540.537719 271.982325,540.687888 272.055266,540.840701 L276.309004,549.774257 C277.896533,553.110166 276.61801,557.105403 273.387184,558.897139 C271.725481,559.82145 270.755062,560.351181 270.475927,560.486333 C259.260149,565.916785 246.935192,568.918639 234,568.918639 C192.649137,568.918639 157.534477,538.241632 144.956015,495.615272 C142.250639,490.057117 140.284694,479.949677 140.028416,464.491641 L140.009921,462.997103 L140,461.672507 C140,461.449425 140,461.225232 140,461 L140.006083,462.549931 L140.001525,461.738922 L140,460.877358 C140,460.369175 140.002341,459.866301 140.006083,459.368708 L140,460.918639 C140,460.242643 140.003083,459.57601 140.009178,458.918683 L140.022218,457.906003 C140.244594,442.176879 142.222766,431.91956 144.955505,426.301912 C157.533458,383.677897 192.648537,353 234,353 Z" id="Path" fill="#FFFFFF"></path>
        <path d="M406,353 C457.914766,353 500,401.353247 500,461 C500,520.646753 457.914766,569 406,569 C354.085234,569 312,520.646753 312,461 C312,401.353247 354.085234,353 406,353 Z M406,377 C367.340068,377 336,414.608081 336,461 C336,507.391919 367.340068,545 406,545 C444.659932,545 476,507.391919 476,461 C476,414.608081 444.659932,377 406,377 Z" id="Shape" fill="#FFFFFF"></path>
        <path d="M1046.33524,376.917548 L1047.04164,377.251524 L1047.73769,377.588238 L1048.30305,377.867355 L1049.02473,378.231052 L1049.58795,378.520709 L1050.36367,378.928093 L1050.90723,379.219437 L1051.65422,379.627814 L1052.19836,379.931185 L1052.93721,380.351146 C1053.45076,380.646288 1053.96144,380.946557 1054.46932,381.251966 L1055.34431,381.784916 L1055.90225,382.131907 L1056.61665,382.584435 L1057.15143,382.929312 L1057.86467,383.397545 L1058.38253,383.743513 L1059.08727,384.222549 C1059.57505,384.557409 1060.0601,384.897297 1060.54227,385.242093 L1061.40708,385.868022 L1061.93949,386.260927 L1062.58027,386.741558 L1063.12335,387.155651 L1063.73629,387.630533 C1064.47056,388.204233 1065.19757,388.789726 1065.917,389.38668 L1067.17517,390.448976 L1067.66194,390.869961 L1068.31615,391.444742 L1068.76439,391.844605 L1069.47037,392.484559 L1069.91197,392.89128 L1070.45542,393.398729 C1071.1406,394.04337 1071.81764,394.698837 1072.48638,395.364947 L1073.67026,396.564199 L1074.08752,396.996617 L1074.76275,397.707446 L1075.17916,398.152778 L1075.72768,398.747667 C1076.35544,399.433952 1076.97497,400.130123 1077.58606,400.835951 L1078.69688,402.140713 L1079.61813,403.256849 C1080.06524,403.806276 1080.50726,404.360892 1080.94428,404.92078 L1080.94428,392 C1080.94428,388.134007 1084.07828,385 1087.94428,385 L1097.94138,385 C1101.80736,385.000044 1104.94136,388.134024 1104.94142,392 L1104.94323,682 C1104.9433,685.865993 1101.80932,689.00002 1097.94332,689.000044 C1097.94331,689.000044 1097.94329,689.000044 1097.94328,689 L1087.94428,689 C1084.07832,688.999904 1080.94433,685.865956 1080.94418,682 L1080.94138,477 L1080.94138,477 C1080.94138,470.23472 1080.2749,463.656238 1079.01643,457.353944 L1078.88666,456.715158 L1078.64357,455.573407 L1078.43284,454.634263 L1078.28606,454.004699 L1078.06952,453.108855 L1077.76548,451.909969 L1077.46151,450.771702 L1077.33645,450.319063 L1077.07818,449.41058 C1076.90898,448.826449 1076.73456,448.24525 1076.55498,447.667065 L1076.28176,446.802057 L1076.09844,446.237344 L1075.75495,445.210584 L1075.5017,444.47778 L1075.335,444.0059 L1075.12527,443.423364 L1074.94014,442.919019 L1074.67153,442.202847 L1074.52314,441.814746 C1074.35346,441.37396 1074.1807,440.935237 1074.00488,440.498618 C1073.73048,439.8172 1073.44864,439.140891 1073.15947,438.469859 L1072.73303,437.495988 L1072.46952,436.909309 L1071.99565,435.881499 L1071.72364,435.306447 L1071.48768,434.816012 L1070.97196,433.769911 L1070.49048,432.823413 L1069.92971,431.755209 L1069.68852,431.306487 L1069.37305,430.728834 L1069.13989,430.308449 L1068.78409,429.677285 L1068.55153,429.271296 L1068.22991,428.718098 L1067.97122,428.279884 L1067.61825,427.69135 C1066.94378,426.576916 1066.24705,425.483146 1065.52883,424.410982 L1064.8698,423.441976 L1064.19327,422.476888 L1063.58635,421.635413 L1063.28815,421.230049 L1062.85315,420.647968 L1062.61949,420.33973 C1062.32976,419.959421 1062.03716,419.58232 1061.74172,419.208478 L1061.12401,418.436682 L1060.49837,417.674529 L1060.30868,417.447222 L1059.80911,416.856774 L1059.50845,416.50702 L1059.10099,416.039596 L1058.76315,415.657673 L1058.07584,414.895982 C1057.77024,414.561796 1057.46216,414.230815 1057.15164,413.903082 C1056.94537,413.685377 1056.73839,413.469486 1056.53035,413.255036 L1057.15164,413.903082 L1056.7357,413.46754 L1056.31688,413.035881 L1055.50663,412.219914 L1054.95928,411.682609 L1054.65554,411.389152 L1054.18551,410.941541 L1053.85247,410.629102 L1053.06361,409.904267 L1052.65647,409.538393 L1052.44137,409.347308 C1051.82454,408.801532 1051.19998,408.267613 1050.56793,407.745831 L1050.29404,407.520875 L1049.77958,407.104444 L1049.35674,406.768087 L1048.91234,406.420227 L1048.52487,406.1216 L1048.03728,405.751897 L1047.6763,405.482505 L1047.13467,405.085091 L1046.80516,404.847256 C1046.50591,404.63261 1046.20523,404.420569 1045.90311,404.211158 L1044.89329,403.524553 L1044.35905,403.171957 L1043.82198,402.824794 L1043.27818,402.480631 L1042.89148,402.240333 L1042.31343,401.887945 L1041.42264,401.360637 L1040.58769,400.883407 L1040.41091,400.784452 C1039.93277,400.517774 1039.45169,400.257384 1038.96776,400.003372 L1038.23973,399.627148 L1037.92159,399.466431 L1037.30904,399.16323 L1036.93442,398.981826 L1036.34635,398.703155 L1035.96234,398.525172 L1035.3829,398.262515 L1034.94943,398.070642 L1034.42508,397.843771 L1034.01111,397.668671 L1033.33963,397.39212 C1032.91164,397.218781 1032.48179,397.050272 1032.05014,396.886648 L1033.01997,397.263692 L1032.43869,397.035441 L1031.85519,396.813128 C1031.4992,396.679564 1031.14198,396.54932 1030.78357,396.422427 L1030.00057,396.151195 L1029.20722,395.888495 L1028.50071,395.664726 L1027.67684,395.415773 L1027.15039,395.263398 L1026.36833,395.04662 L1026.62239,395.115794 C1026.14268,394.984051 1025.66109,394.858222 1025.17768,394.738374 L1024.61047,394.600701 L1024.10819,394.483688 L1023.56497,394.362298 L1023.0802,394.258474 L1022.49814,394.139399 L1022.09114,394.059745 L1021.41656,393.934229 L1021.03336,393.866529 L1020.52007,393.779918 L1020.0056,393.697769 L1019.46074,393.615837 L1019.10944,393.565768 C1018.69074,393.507378 1018.27092,393.453421 1017.85001,393.403938 L1018.91459,393.538926 C1018.45573,393.476493 1017.99552,393.419385 1017.53401,393.367653 L1016.81078,393.291098 L1016.37022,393.248879 L1015.72116,393.192749 L1015.26258,393.157439 L1014.65268,393.116038 L1014.19251,393.088994 L1013.54254,393.056921 L1013.10954,393.039526 L1012.33434,393.0163 C1011.87111,393.00545 1011.40678,393 1010.94138,393 C972.281449,393 940.941381,430.608081 940.941381,477 C940.941381,523.391919 972.281449,561 1010.94138,561 C1020.67383,561 1029.94238,558.616564 1038.3638,554.30957 L1038.84011,554.06081 C1038.96583,553.993893 1039.10693,553.916717 1039.26341,553.829281 C1042.63735,551.941836 1046.90226,553.14787 1048.78892,556.522247 C1048.86319,556.655079 1048.9331,556.790298 1048.99918,556.927388 L1053.26053,565.876926 C1054.84909,569.213373 1053.56969,573.209664 1050.33913,575.00378 C1048.9319,575.784617 1047.95796,576.305921 1047.41731,576.567693 C1036.20153,581.998146 1023.87657,585 1010.94138,585 C969.528674,585 934.370838,554.231164 921.841111,511.505298 C918.967869,505.508768 916.941381,494.332179 916.941381,477 C916.941381,417.353247 959.026615,369 1010.94138,369 C1011.40549,369 1011.86881,369.003864 1012.33133,369.011567 L1010.94138,369 C1011.46015,369 1011.97793,369.004828 1012.4947,369.014448 L1013.12183,369.028485 L1014.09736,369.059725 L1014.69009,369.084311 L1015.58905,369.129707 L1016.24455,369.168982 L1016.93952,369.216325 C1017.57346,369.262195 1018.20553,369.315265 1018.83578,369.375475 L1019.89507,369.48357 L1020.55677,369.558109 L1021.39675,369.660533 L1022.01467,369.741472 L1022.95873,369.874316 L1023.55964,369.964679 L1024.34354,370.089378 L1024.99918,370.199621 L1025.73629,370.330065 L1026.35379,370.444655 L1027.18698,370.606988 L1027.82442,370.737194 L1028.60914,370.904674 L1029.20743,371.03772 L1030.15203,371.257265 L1030.7329,371.398068 L1031.54196,371.601584 L1032.14704,371.759448 L1032.87058,371.95461 C1033.45335,372.114617 1034.03412,372.280891 1034.61276,372.45335 L1035.63785,372.766024 L1036.26299,372.963768 L1037.04298,373.218048 L1037.67176,373.429179 L1038.37925,373.673351 L1039.02052,373.900753 L1039.77399,374.175395 C1040.59646,374.479597 1041.41405,374.79649 1042.22652,375.125849 L1043.0523,375.465633 L1043.90437,375.826835 L1044.45513,376.066093 L1045.12873,376.364948 L1045.73329,376.639048 L1046.33524,376.917548 Z" id="Path" fill="#FFFFFF" transform="translate(1010.942330, 529.000000) scale(-1, 1) translate(-1010.942330, -529.000000) "></path>
        <path d="M1222,317 L1222,327 C1222,330.865993 1218.86599,334 1215,334 L1209.99965,334 L1209.99965,334 C1196.74482,334 1185.99965,344.745166 1185.99965,358 L1185.99965,434.000351 C1185.99965,448.336446 1179.71473,461.20462 1169.74989,469.999884 C1179.71473,478.79538 1185.99965,491.663554 1185.99965,505.999649 L1185.99965,580 C1185.99965,593.254834 1196.74482,604 1209.99965,604 L1215,604 C1218.86599,604 1222,607.134007 1222,611 L1222,621 C1222,624.865993 1218.86599,628 1215,628 L1210,628 L1210,628 C1183.49033,628 1162,606.509668 1162,580 L1162,506 C1162,494.55463 1153.98831,484.980491 1143.26713,482.579787 C1143.26713,482.579787 1143.26713,482.579787 1143.26713,482.579787 C1140.18849,481.890412 1137.99999,479.15767 1138,476.002787 L1138,463.717544 C1138.00001,460.703339 1140.10563,458.098712 1143.05292,457.467145 C1143.05292,457.467145 1143.05292,457.467145 1143.05292,457.467145 C1153.88142,455.146739 1162,445.521468 1162,434 L1162,358 C1162,331.490332 1183.49033,310 1210,310 L1215,310 C1218.86599,310 1222,313.134007 1222,317 Z" id="Path" fill="#ED6363" fill-rule="nonzero" transform="translate(1180.000000, 469.000000) scale(-1, 1) translate(-1180.000000, -469.000000) "></path>
    </g>
</svg>