<?xml version="1.0" encoding="UTF-8"?>
<svg width="2207px" height="399px" viewBox="0 0 2207 399" version="1.1" xmlns="http://www.w3.org/2000/svg" xmlns:xlink="http://www.w3.org/1999/xlink">
    <title>logo-light</title>
    <g id="Page-1" stroke="none" stroke-width="1" fill="none" fill-rule="evenodd">
        <g id="logo-light" transform="translate(-106.000000, -123.000000)">
            <g transform="translate(106.000000, 123.000000)">
                <polygon id="Path" fill="#C70039" points="288 10.7231225 383.761 176.586122 384 176.723122 383.92 176.860122 384 177 383.759 177.138122 288 342.997122 288 343.426667 224.001 343.426122 192 287.998122 255.753 287.999122 319.919 176.861122 256.159 66.4261225 191.349 66.4251225 223.35 10.9991225 287.522 10.9991225"></polygon>
                <polygon id="Path" fill="#900C3F" points="96 10.7231225 96.478 10.9991225 159.348 10.9991225 95.7107441 121.222684 95.6322986 121.084684 63.6987441 176.627478 63.7107441 176.648684 63.6987441 176.670539 95.6322986 232.213333 95.7117441 232.074684 160 343.426122 96 343.426667 96 342.998122 0.239 177.137122 0 177 0.08 176.861122 0 176.723122 0.239 176.585122"></polygon>
                <path d="M741,46 C790.734288,46 828,101.821381 828,168.352941 L828,288 L796,288 L796,168.352941 C796,117.410286 769.690146,78 741,78 C712.309854,78 686,117.410286 686,168.352941 L686,288 L654,288 L654,168.352941 L653.992131,166.828149 C653.473565,116.626022 627.403245,78 599,78 C570.309854,78 544,117.410286 544,168.352941 L544,288 L512,288 L512,66.4313725 L544,66.4313725 L544,73.071 L544.770338,72.1984761 C559.07379,56.2362151 577.223938,46.4725871 597.511737,46.0167013 L599,46 C628.840573,46 654.192458,66.0956972 669.699475,96.5430719 L670,97.143 L670.300525,96.5430719 C685.549091,66.6031534 710.317099,46.672732 739.511737,46.0167013 L741,46 Z" id="path" fill="#000000" fill-rule="nonzero"></path>
                <path d="M1894,52 C1939.78851,52 1975,104.744301 1975,168.352941 L1975,288 L1955,288 L1955,168.352941 C1955,114.487367 1926.63592,72 1894,72 C1861.36408,72 1833,114.487367 1833,168.352941 L1833,288 L1813,288 L1813,168.352941 L1812.99151,166.740419 C1812.43229,113.641868 1784.30956,72 1752,72 C1719.36408,72 1691,114.487367 1691,168.352941 L1691,288 L1671,288 L1671,66.4313725 L1691,66.4313725 L1691,91.471 L1691.77703,90.2126593 C1706.15869,67.2573229 1726.9308,52.5621444 1750.62954,52.0157814 L1752,52 C1783.13619,52 1809.38156,76.3889647 1822.99025,111.998494 L1823,112.023 L1823.00975,111.998494 C1836.41831,76.9126342 1862.09462,52.7197491 1892.62954,52.0157814 L1894,52 Z" id="path-copy" fill="#000000" fill-rule="nonzero"></path>
                <path d="M890,66.6328076 L889.999738,169.913 L890,224.330452 C890,240.067227 895.606208,253.421908 904.150005,260.651872 L904.48436,260.930452 C912.134372,267.205359 920.996588,267.823344 930.451764,261.869279 L946.437712,287.255288 C925.982902,300.135987 903.025731,298.535125 885.458532,284.125664 C869.422296,270.971972 860,248.865984 860,224.330452 L860,66.6328076 L890,66.6328076 Z M890,0 L890,30 L860,30 L860,0 L890,0 Z" id="Shape" fill="#000000" fill-rule="nonzero"></path>
                <path d="M1231.55526,66.6328076 L1231.555,169.913 L1231.55526,224.330452 C1231.55526,240.638134 1237.40367,254.563137 1246.42705,262.190199 L1246.77123,262.476799 C1255.08239,269.29401 1264.88427,269.97752 1275.07276,263.56168 L1288.92724,285.562888 C1269.20574,297.981811 1247.18824,296.446474 1230.28218,282.579316 C1214.73292,269.825066 1205.55526,248.293025 1205.55526,224.330452 L1205.55526,66.6328076 L1231.55526,66.6328076 Z M1231.55526,0 L1231.55526,26 L1205.55526,26 L1205.55526,0 L1231.55526,0 Z" id="Shape-Copy" fill="#000000" fill-rule="nonzero"></path>
                <path d="M1068,48 C1126.59088,48 1173,103.368951 1173,170.568627 L1173,288 L1145,288 L1145,170.568627 C1145,117.84671 1109.92494,76 1068,76 C1026.07506,76 991,117.84671 991,170.568627 L991,288 L963,288 L963,170.568627 L963,66.4313725 L991,66.4313725 L991,87.163 L991.292712,86.7934701 C1009.99277,63.429874 1036.49061,48.57911 1066.24596,48.0165671 L1068,48 Z" id="Path" fill="#000000" fill-rule="nonzero"></path>
                <path d="M1391.92774,50 C1409.87808,50 1427.15253,55.4006821 1442.39755,65.4804352 L1429.16084,85.5001636 C1417.76915,77.9681649 1405.0767,74 1391.92774,74 C1348.86715,74 1313,116.995893 1313,171 C1313,225.004107 1348.86715,268 1391.92774,268 C1405.15052,268 1417.91171,263.986969 1429.35141,256.373421 L1442.64859,276.353036 C1427.34376,286.538973 1409.97803,292 1391.92774,292 C1334.55232,292 1289,237.393968 1289,171 C1289,104.606032 1334.55232,50 1391.92774,50 Z" id="Path" fill="#000000" fill-rule="nonzero"></path>
                <path d="M1545,51 C1601.8166,51 1647,105.120779 1647,171 C1647,236.879221 1601.8166,291 1545,291 C1488.1834,291 1443,236.879221 1443,171 C1443,105.120779 1488.1834,51 1545,51 Z M1545,73 C1501.30077,73 1465,116.481146 1465,171 C1465,225.518854 1501.30077,269 1545,269 C1588.69923,269 1625,225.518854 1625,171 C1625,116.481146 1588.69923,73 1545,73 Z" id="Oval" fill="#000000" fill-rule="nonzero"></path>
                <path d="M2107,53 C2140.92595,53 2170.67224,72.7162355 2188.71421,102.769622 L2189,103.253 L2189,66.4342105 L2207,66.4342105 L2207,399 L2189,399 L2189,170.638158 C2189,115.291531 2151.89951,71 2107,71 C2062.10049,71 2025,115.291531 2025,170.638158 C2025,225.984785 2062.10049,270.276316 2107,270.276316 C2120.84524,270.276316 2134.19915,266.094155 2146.13508,258.183004 L2156.0795,273.186623 C2141.24964,283.015869 2124.45269,288.276316 2107,288.276316 C2051.38368,288.276316 2007,235.289926 2007,170.638158 C2007,105.986389 2051.38368,53 2107,53 Z" id="Path" fill="#000000" fill-rule="nonzero" transform="translate(2107.000000, 226.000000) scale(-1, 1) translate(-2107.000000, -226.000000) "></path>
            </g>
        </g>
    </g>
</svg>